<?xml version="1.0" encoding="utf-8"?>
<!-- Svg Vector Icons : http://www.onlinewebfonts.com/icon -->
<!DOCTYPE svg PUBLIC "-//W3C//DTD SVG 1.1//EN" "http://www.w3.org/Graphics/SVG/1.1/DTD/svg11.dtd">
<svg version="1.1" xmlns="http://www.w3.org/2000/svg" xmlns:xlink="http://www.w3.org/1999/xlink" x="0px" y="0px" viewBox="0 0 256 256" enable-background="new 0 0 256 256" xml:space="preserve">
<metadata> Svg Vector Icons : http://www.onlinewebfonts.com/icon </metadata>
<g><g><path fill="#000000" d="M215.6,74.4H40.4C23.6,74.4,10,60.7,10,44c0-16.8,13.6-30.4,30.4-30.4h175.2c16.8,0,30.4,13.6,30.4,30.4S232.4,74.4,215.6,74.4z M40.4,27.9c-8.9,0-16.1,7.2-16.1,16.1S31.5,60,40.4,60h175.2c8.9,0,16.1-7.2,16.1-16.1s-7.2-16.1-16.1-16.1H40.4z"/><path fill="#000000" d="M215.6,242.4H40.4C23.6,242.4,10,228.8,10,212c0-16.8,13.6-30.4,30.4-30.4h175.2c16.8,0,30.4,13.6,30.4,30.4C246,228.8,232.4,242.4,215.6,242.4z M40.4,195.9c-8.9,0-16.1,7.2-16.1,16.1c0,8.9,7.2,16.1,16.1,16.1h175.2c8.9,0,16.1-7.2,16.1-16.1c0-8.9-7.2-16.1-16.1-16.1H40.4z"/><path fill="#000000" d="M215.6,160.2H40.4c-16.8,0-30.4-13.6-30.4-30.4s13.6-30.4,30.4-30.4h175.2c16.8,0,30.4,13.6,30.4,30.4S232.4,160.2,215.6,160.2z M40.4,113.7c-8.9,0-16.1,7.2-16.1,16.1c0,8.9,7.2,16.1,16.1,16.1h175.2c8.9,0,16.1-7.2,16.1-16.1c0-8.9-7.2-16.1-16.1-16.1H40.4z"/></g></g>
</svg>